HIERARCHY
ROOT Hips
{
	OFFSET 0.00000 0.00000 0.00000
	CHANNELS 6 Xposition Yposition Zposition Zrotation Yrotation Xrotation 
	JOINT LHipJoint
	{
		OFFSET 0 0 0
		CHANNELS 3 Zrotation Yrotation Xrotation
		JOINT LeftUpLeg
		{
			OFFSET 1.38691 -1.89057 0.78360
			CHANNELS 3 Zrotation Yrotation Xrotation
			JOINT LeftLeg
			{
				OFFSET 2.59731 -7.13606 0.00000
				CHANNELS 3 Zrotation Yrotation Xrotation
				JOINT LeftFoot
				{
					OFFSET 2.70078 -7.42033 0.00000
					CHANNELS 3 Zrotation Yrotation Xrotation
					JOINT LeftToeBase
					{
						OFFSET 0.16751 -0.46024 2.68862
						CHANNELS 3 Zrotation Yrotation Xrotation
						End Site
						{
							OFFSET 0.00000 -0.00000 1.37057
						}
					}
				}
			}
		}
	}
	JOINT RHipJoint
	{
		OFFSET 0 0 0
		CHANNELS 3 Zrotation Yrotation Xrotation
		JOINT RightUpLeg
		{
			OFFSET -1.38190 -1.89056 0.78359
			CHANNELS 3 Zrotation Yrotation Xrotation
			JOINT RightLeg
			{
				OFFSET -2.57785 -7.08258 0.00000
				CHANNELS 3 Zrotation Yrotation Xrotation
				JOINT RightFoot
				{
					OFFSET -2.77908 -7.63547 0.00000
					CHANNELS 3 Zrotation Yrotation Xrotation
					JOINT RightToeBase
					{
						OFFSET -0.17921 -0.49237 2.62360
						CHANNELS 3 Zrotation Yrotation Xrotation
						End Site
						{
							OFFSET -0.00000 -0.00000 1.34085
						}
					}
				}
			}
		}
	}
	JOINT LowerBack
	{
		OFFSET 0 0 0
		CHANNELS 3 Zrotation Yrotation Xrotation
		JOINT Spine
		{
			OFFSET -0.10749 2.04110 -0.22549
			CHANNELS 3 Zrotation Yrotation Xrotation
			JOINT Spine1
			{
				OFFSET 0.01213 2.05840 0.00691
				CHANNELS 3 Zrotation Yrotation Xrotation
				JOINT Neck
				{
					OFFSET 0 0 0
					CHANNELS 3 Zrotation Yrotation Xrotation
					JOINT Neck1
					{
						OFFSET 0.06585 1.81215 0.35449
						CHANNELS 3 Zrotation Yrotation Xrotation
						JOINT Head
						{
							OFFSET -0.04315 1.87555 -0.27307
							CHANNELS 3 Zrotation Yrotation Xrotation
							End Site
							{
								OFFSET -0.01775 1.89740 -0.13294
							}
						}
					}
				}
				JOINT LeftShoulder
				{
					OFFSET 0 0 0
					CHANNELS 3 Zrotation Yrotation Xrotation
					JOINT LeftArm
					{
						OFFSET 2.98012 1.63606 0.28888
						CHANNELS 3 Zrotation Yrotation Xrotation
						JOINT LeftForeArm
						{
							OFFSET 5.59864 -0.00000 -0.00000
							CHANNELS 3 Zrotation Yrotation Xrotation
							JOINT LeftHand
							{
								OFFSET 3.59542 -0.00000 -0.00000
								CHANNELS 3 Zrotation Yrotation Xrotation
								JOINT LeftFingerBase
								{
									OFFSET 0 0 0
									CHANNELS 3 Zrotation Yrotation Xrotation
									JOINT LeftHandIndex1
									{
										OFFSET 0.57201 -0.00000 -0.00000
										CHANNELS 3 Zrotation Yrotation Xrotation
										End Site
										{
											OFFSET 0.46117 -0.00000 -0.00000
										}
									}
								}
								JOINT LThumb
								{
									OFFSET 0 0 0
									CHANNELS 3 Zrotation Yrotation Xrotation
									End Site
									{
										OFFSET 0.46821 -0.00000 0.46821
									}
								}
							}
						}
					}
				}
				JOINT RightShoulder
				{
					OFFSET 0 0 0
					CHANNELS 3 Zrotation Yrotation Xrotation
					JOINT RightArm
					{
						OFFSET -3.08694 1.53706 0.36335
						CHANNELS 3 Zrotation Yrotation Xrotation
						JOINT RightForeArm
						{
							OFFSET -5.80940 -0.00000 -0.00000
							CHANNELS 3 Zrotation Yrotation Xrotation
							JOINT RightHand
							{
								OFFSET -3.66953 -0.00000 -0.00000
								CHANNELS 3 Zrotation Yrotation Xrotation
								JOINT RightFingerBase
								{
									OFFSET 0 0 0
									CHANNELS 3 Zrotation Yrotation Xrotation
									JOINT RightHandIndex1
									{
										OFFSET -0.57843 -0.00000 -0.00000
										CHANNELS 3 Zrotation Yrotation Xrotation
										End Site
										{
											OFFSET -0.46635 -0.00000 -0.00000
										}
									}
								}
								JOINT RThumb
								{
									OFFSET 0 0 0
									CHANNELS 3 Zrotation Yrotation Xrotation
									End Site
									{
										OFFSET -0.47347 -0.00000 0.47347
									}
								}
							}
						}
					}
				}
			}
		}
	}
}
MOTION
Frames: 16
Frame Time: .0083333
6.8575 19.3983 -36.3815 0 0 0 0 0 0 -21 0 0 0 0 0 0 0 0 0 0 0 0 0 0 21 0 0 0 0 0 0 0 0 0 0 0 0 0 0 0 0 0 0 0 0 0 0 -16 0 0 21 0 0 11 0 0 0 -8 0 0 0 0 0 0 0 0 0 0 0 0 0 0 0 0 0 0 0 0 8 0 0 0 0 0 0 0 0 0 0 0 0 0 0 0 0 0
6.8575 19.3983 -36.3815 -0.2416 48.6626 6.5612 0.0000 0.0000 0.0000 -16.6904 -2.5337 -4.8771 2.9471 10.6089 30.9718 3.0180 -22.2662 -32.9255 0.3464 3.7818 10.4636 0.0000 0.0000 0.0000 18.6645 6.5612 -29.6972 -6.4326 -14.8349 46.6942 -4.0670 8.2651 -36.7948 -0.7706 5.6051 -15.6429 -3.9880 -2.9977 10.8529 0.7311 -4.4637 -0.9355 3.7352 -2.0236 -6.7122 -1.3298 -5.6564 -13.9776 4.5556 -9.1333 32.6253 0.6254 -3.4099 13.6682 0.0000 0.0000 0.0000 -86.3619 -1.7653 43.6981 27.6432 -38.7856 -9.8994 -0.0000 0.0000 -26.8256 25.2297 20.4207 9.3362 -7.1250 0.0000 -0.0000 -3.3752 52.3193 -0.6087 0.0000 0.0000 0.0000 82.4077 -1.8535 28.9791 -26.1386 37.3453 -8.9716 0.0000 -0.0000 -19.0609 -36.4289 -3.1486 2.3213 7.1250 -0.0000 -0.0000 -8.0422 -33.8088 -2.2260
6.8586 19.3927 -36.1927 -0.2638 48.4803 6.3208 0.0000 0.0000 0.0000 -16.9641 -3.4376 -3.9492 2.8776 10.4943 30.5926 3.5053 -21.1659 -34.9259 0.2860 3.4393 9.5043 0.0000 0.0000 0.0000 18.6767 6.5624 -29.4925 -6.4590 -14.8588 46.7970 -4.0239 8.6443 -36.5557 -0.6751 5.2539 -14.6341 -4.2288 -2.9945 10.8971 0.7192 -4.4923 -0.8842 3.8623 -2.0312 -6.6631 -1.3593 -5.6161 -14.0942 4.5556 -9.0745 32.6725 0.6360 -3.3850 13.7137 -0.0000 0.0000 0.0000 -86.3372 -1.6079 43.3461 27.6507 -38.7927 -9.9041 -0.0000 0.0000 -26.6502 25.1719 20.4350 9.3184 -7.1250 0.0000 -0.0000 -3.4379 52.3241 -0.6204 -0.0000 0.0000 0.0000 82.3704 -1.6850 29.6388 -26.3692 37.5710 -9.1119 0.0000 -0.0000 -18.8795 -36.5223 -2.8915 2.1394 7.1250 -0.0000 -0.0000 -8.0969 -33.4955 -2.3034
6.8603 19.3872 -36.0098 -0.3722 48.2307 6.1637 0.0000 0.0000 0.0000 -17.1658 -4.2599 -3.3884 2.8597 10.4644 30.4940 3.7978 -20.9766 -36.2086 0.2951 3.4929 9.6542 0.0000 0.0000 0.0000 18.7818 6.4769 -29.5588 -6.5048 -14.9003 46.9757 -3.9552 8.6378 -36.2240 -0.7124 5.3941 -15.0360 -4.3398 -2.9726 10.8077 0.7122 -4.4734 -0.8595 3.9064 -2.0215 -6.5802 -1.4110 -5.5865 -14.2645 4.5778 -9.0346 32.7372 0.6545 -3.3661 13.7823 -0.0000 0.0000 0.0000 -86.3220 -1.4677 42.9960 27.6359 -38.7789 -9.8948 -0.0000 0.0000 -26.4398 25.1343 20.4310 9.3011 -7.1250 0.0000 -0.0000 -3.4752 52.3129 -0.6262 -0.0000 0.0000 0.0000 82.3561 -1.4430 30.1459 -26.5774 37.7732 -9.2391 0.0000 -0.0000 -18.8475 -36.5191 -2.6428 1.9555 7.1250 -0.0000 -0.0000 -8.0729 -33.1893 -2.3568
6.8646 19.3842 -35.8375 -0.3271 47.9231 6.2226 0.0000 0.0000 0.0000 -17.4789 -4.9550 -3.0707 2.8676 10.4776 30.5377 4.1076 -20.4480 -37.4870 0.2690 3.3363 9.2164 0.0000 0.0000 0.0000 18.7812 6.2696 -29.8220 -6.5430 -14.9346 47.1238 -3.8334 8.5675 -35.6345 -0.7297 5.4579 -15.2194 -4.4066 -2.9551 10.6594 0.6489 -4.4563 -0.8620 3.8641 -2.0149 -6.5006 -1.4503 -5.6104 -14.4408 4.6164 -9.0859 32.8436 0.6624 -3.3813 13.8754 -0.0000 -0.0000 0.0000 -86.2786 -1.3460 42.6422 27.6231 -38.7669 -9.8868 -0.0000 0.0000 -26.2232 25.0720 20.4023 9.2630 -7.1250 0.0000 -0.0000 -3.5310 52.2707 -0.6326 -0.0000 -0.0000 0.0000 82.3991 -1.1770 30.6062 -26.7790 37.9676 -9.3628 0.0000 -0.0000 -18.7893 -36.5311 -2.4425 1.8082 7.1250 -0.0000 -0.0000 -8.0652 -32.9429 -2.4030
6.8662 19.3804 -35.6438 -0.4049 47.2867 5.9195 0.0000 0.0000 0.0000 -17.5669 -4.8589 -2.6711 2.9188 10.5625 30.8181 4.4396 -19.4647 -38.7885 0.1882 2.7942 7.7062 0.0000 0.0000 0.0000 19.0066 6.3048 -29.5433 -6.5644 -14.9538 47.2070 -3.7521 8.7588 -35.2182 -0.7419 5.5024 -15.3474 -4.6868 -2.8087 10.6055 0.6315 -4.2917 -0.7431 3.9694 -1.9322 -6.3406 -1.5350 -5.5877 -14.5926 4.7118 -9.0670 32.8262 0.7125 -3.3695 13.9118 -0.0000 -0.0000 0.0000 -86.1955 -1.2154 42.2705 27.5808 -38.7274 -9.8603 -0.0000 0.0000 -26.0120 25.0004 20.3442 9.2086 -7.1250 0.0000 -0.0000 -3.5884 52.1953 -0.6363 -0.0000 -0.0000 0.0000 82.4706 -0.9012 31.0720 -26.9209 38.1037 -9.4503 0.0000 -0.0000 -18.5875 -36.5905 -2.2044 1.6357 7.1250 -0.0000 -0.0000 -8.0922 -32.6510 -2.4688
6.8687 19.3783 -35.4619 -0.5232 46.8391 5.7101 0.0000 0.0000 0.0000 -17.5988 -5.0786 -2.5389 3.0167 10.7221 31.3482 4.7765 -18.0368 -40.0761 0.0964 2.0023 5.5121 0.0000 0.0000 0.0000 19.2268 6.1900 -29.4155 -6.5672 -14.9563 47.2178 -3.6627 8.8918 -34.7632 -0.7501 5.5321 -15.4325 -4.7481 -2.7262 10.5589 0.6071 -4.1869 -0.6863 3.9573 -1.8828 -6.2618 -1.6041 -5.5396 -14.7478 4.7655 -9.0000 32.8191 0.7516 -3.3399 13.9474 -0.0000 -0.0000 0.0000 -86.0844 -1.0567 41.9582 27.5363 -38.6858 -9.8325 -0.0000 0.0000 -25.8128 24.9576 20.3240 9.1824 -7.1250 0.0000 -0.0000 -3.6266 52.1660 -0.6405 -0.0000 -0.0000 0.0000 82.5652 -0.6376 31.4738 -27.0432 38.2203 -9.5258 0.0000 -0.0000 -18.4982 -36.8101 -2.0873 1.5614 7.1250 -0.0000 -0.0000 -8.2589 -32.5107 -2.5487
6.8728 19.3796 -35.2711 -0.6195 46.1588 5.4971 0.0000 0.0000 0.0000 -17.5841 -5.0016 -2.4833 3.1473 10.9297 32.0433 5.0179 -16.6230 -40.9957 0.0413 1.3114 3.6061 0.0000 0.0000 0.0000 19.4552 6.3095 -29.0968 -6.5431 -14.9347 47.1242 -3.6252 8.9152 -34.5731 -0.7551 5.5498 -15.4835 -4.9127 -2.5603 10.4418 0.5802 -3.9805 -0.6297 3.9819 -1.7817 -6.1469 -1.6225 -5.5356 -14.8877 4.7618 -8.9984 32.9018 0.7493 -3.3370 14.0161 0.0000 0.0000 0.0000 -85.9151 -0.8386 41.6661 27.4668 -38.6207 -9.7891 -0.0000 0.0000 -25.7042 24.9246 20.3191 9.1667 -7.1250 0.0000 -0.0000 -3.6588 52.1548 -0.6452 0.0000 0.0000 0.0000 82.6908 -0.4571 31.8072 -27.1299 38.3028 -9.5795 0.0000 -0.0000 -18.2653 -36.9812 -1.9982 1.5041 7.1250 -0.0000 -0.0000 -8.3883 -32.4037 -2.6113
6.8764 19.3888 -35.0813 -0.7770 45.5948 5.2171 0.0000 0.0000 0.0000 -17.4474 -4.9090 -2.5243 3.3100 11.1807 32.8917 5.2091 -15.1606 -41.7399 0.0049 0.4539 1.2473 0.0000 0.0000 0.0000 19.7896 6.3323 -28.7218 -6.5046 -14.9001 46.9748 -3.6334 8.7103 -34.6286 -0.7958 5.6941 -15.8995 -5.3383 -2.3384 9.9274 0.7673 -3.6842 -0.2498 4.3304 -1.6533 -5.4453 -1.7052 -5.6020 -15.2927 4.6792 -9.0472 32.8203 0.7091 -3.3747 14.0707 0.0000 0.0000 0.0000 -85.9953 -1.1720 41.5467 27.2778 -38.4428 -9.6714 -0.0000 0.0000 -25.4918 24.8119 20.1835 9.0630 -7.1250 0.0000 -0.0000 -3.7373 51.9892 -0.6439 0.0000 0.0000 0.0000 82.5429 0.1790 31.8843 -27.2224 38.3905 -9.6369 0.0000 -0.0000 -18.1854 -37.1187 -2.0721 1.5674 7.1250 -0.0000 -0.0000 -8.5061 -32.4976 -2.6292
6.8795 19.3958 -34.8908 -0.8106 44.8575 5.0498 0.0000 0.0000 0.0000 -17.3691 -4.5763 -2.6641 3.4952 11.4565 33.8355 5.3008 -14.3267 -42.1100 0.0000 0.0034 0.0095 0.0000 0.0000 0.0000 20.0178 6.4809 -28.3293 -6.4538 -14.8541 46.7767 -3.5323 8.9945 -34.0982 -0.7619 5.5743 -15.5542 -5.5368 -2.1259 9.8464 0.7451 -3.4196 -0.2055 4.3780 -1.5213 -5.3725 -1.6914 -5.5826 -15.4699 4.5759 -8.9991 32.9401 0.6684 -3.3590 14.1537 0.0000 -0.0000 0.0000 -85.8066 -0.9326 41.3018 27.1271 -38.3001 -9.5778 -0.0000 0.0000 -25.2563 24.6592 20.1603 8.9910 -7.1250 0.0000 -0.0000 -3.8857 51.9369 -0.6645 0.0000 -0.0000 0.0000 82.6632 0.3473 32.1273 -27.2376 38.4048 -9.6463 0.0000 -0.0000 -18.0823 -37.2553 -2.0226 1.5376 7.1250 -0.0000 -0.0000 -8.6113 -32.4387 -2.6747
6.8826 19.4074 -34.6993 -0.9622 44.1741 4.8085 0.0000 0.0000 0.0000 -17.1667 -4.2583 -2.8619 3.6950 11.7430 34.8289 5.3615 -13.3026 -42.3641 0.0116 -0.6954 -1.9111 0.0000 0.0000 0.0000 20.3997 6.5186 -27.9171 -6.3840 -14.7904 46.5041 -3.5035 8.9934 -33.9517 -0.7640 5.5817 -15.5753 -5.6258 -1.9386 9.7948 0.7507 -3.1766 -0.1830 4.3989 -1.4006 -5.3423 -1.6789 -5.5536 -15.6473 4.4702 -8.9351 33.0551 0.6296 -3.3373 14.2342 -0.0000 0.0000 0.0000 -85.5942 -0.6120 41.0675 27.0022 -38.1813 -9.5005 -0.0000 0.0000 -25.0270 24.5788 20.0601 8.9163 -7.1250 0.0000 -0.0000 -3.9405 51.8154 -0.6622 -0.0000 0.0000 0.0000 82.7899 0.4862 32.3556 -27.2579 38.4241 -9.6590 0.0000 -0.0000 -18.1136 -37.3371 -1.9343 1.4749 7.1250 -0.0000 -0.0000 -8.6685 -32.3305 -2.7157
6.8820 19.4121 -34.5048 -1.1026 43.3957 4.4862 0.0000 0.0000 0.0000 -16.8948 -3.7431 -3.0517 3.9415 12.0822 36.0234 5.3709 -12.9810 -42.4072 0.0289 -1.0977 -3.0177 0.0000 0.0000 0.0000 20.7921 6.6027 -27.3369 -6.3069 -14.7193 46.2013 -3.4017 9.2861 -33.4128 -0.7181 5.4154 -15.0972 -5.7829 -1.7182 9.8266 0.7469 -2.9027 -0.1580 4.4488 -1.2613 -5.3580 -1.6217 -5.5467 -15.8060 4.3706 -8.9245 33.2508 0.5771 -3.3295 14.3479 0.0000 -0.0000 0.0000 -85.3480 -0.2298 40.7828 26.8354 -38.0218 -9.3976 -0.0000 0.0000 -24.7858 24.5491 20.0204 8.8876 -7.1250 0.0000 -0.0000 -3.9599 51.7678 -0.6608 0.0000 -0.0000 0.0000 82.9240 0.7738 32.6323 -27.1271 38.3001 -9.5778 0.0000 -0.0000 -18.2452 -37.3988 -1.9981 1.5269 7.1250 -0.0000 -0.0000 -8.7245 -32.4108 -2.7165
6.8893 19.4362 -34.3071 -1.3534 42.4020 4.1902 0.0000 0.0000 0.0000 -16.5149 -3.0284 -3.4485 4.2321 12.4630 37.3902 5.3329 -12.7562 -42.2508 0.0466 -1.3935 -3.8322 0.0000 0.0000 0.0000 21.2816 6.7924 -26.7050 -6.2053 -14.6243 45.8000 -3.3277 9.4703 -33.0205 -0.7100 5.3853 -15.0107 -5.6105 -1.5985 9.6376 0.6498 -2.7162 -0.1129 4.2148 -1.1807 -5.2378 -1.5685 -5.3622 -15.8998 4.3692 -8.6763 33.3003 0.6074 -3.2151 14.3780 -0.0000 0.0000 0.0000 -84.9647 0.2552 40.2272 26.8837 -38.0681 -9.4273 -0.0000 0.0000 -25.1678 24.8113 20.2524 9.0920 -7.1250 0.0000 -0.0000 -3.7561 52.0627 -0.6539 -0.0000 0.0000 0.0000 83.2356 0.9741 33.2300 -27.1044 38.2785 -9.5637 0.0000 -0.0000 -18.3532 -37.3811 -1.9677 1.5027 7.1250 -0.0000 -0.0000 -8.7072 -32.3726 -2.7191
6.8829 19.4379 -34.1237 -1.5548 41.5481 3.8510 0.0000 0.0000 0.0000 -16.1343 -2.5568 -3.9134 4.5995 12.9181 39.0626 5.3088 -12.6438 -42.1508 0.0768 -1.7878 -4.9195 0.0000 0.0000 0.0000 21.7447 6.9752 -26.0629 -6.1098 -14.5339 45.4208 -3.2630 9.7844 -32.6708 -0.6878 5.3023 -14.7727 -5.8451 -1.2672 9.8432 0.7768 -2.3083 -0.1156 4.4366 -0.9661 -5.3884 -1.5490 -5.4096 -16.1510 4.1876 -8.7049 33.4879 0.5185 -3.2383 14.5079 0.0000 0.0000 0.0000 -84.9052 0.6114 40.0018 26.7458 -37.9357 -9.3424 -0.0000 0.0000 -24.9374 24.3704 20.1798 8.8818 -7.1250 0.0000 -0.0000 -4.1829 51.9056 -0.7123 0.0000 0.0000 0.0000 83.2553 1.0295 33.2497 -27.1397 38.3121 -9.5856 0.0000 -0.0000 -18.4576 -37.3816 -2.0891 1.5954 7.1250 -0.0000 -0.0000 -8.7197 -32.5237 -2.6910
6.8788 19.4416 -33.9409 -1.8506 40.6664 3.4880 0.0000 0.0000 0.0000 -15.6548 -2.0855 -4.4396 5.0071 13.3918 40.8533 5.2318 -12.6496 -41.8238 0.0912 -1.9473 -5.3599 0.0000 0.0000 0.0000 22.2742 7.1171 -25.4133 -6.0053 -14.4335 45.0032 -3.1867 10.1584 -32.2595 -0.6742 5.2506 -14.6247 -5.6126 -1.1617 9.9556 0.7273 -2.1508 -0.1177 4.2361 -0.8921 -5.4823 -1.5081 -5.2555 -16.3011 4.1602 -8.4923 33.5870 0.5331 -3.1416 14.5747 -0.0000 0.0000 0.0000 -84.5782 1.1027 39.2784 26.6815 -37.8738 -9.3030 -0.0000 0.0000 -24.9083 24.1512 20.2187 8.8089 -7.1250 0.0000 -0.0000 -4.4149 51.9074 -0.7521 -0.0000 0.0000 0.0000 83.5515 1.2397 33.7287 -27.0748 38.2504 -9.5454 0.0000 -0.0000 -18.5277 -37.3184 -2.1605 1.6461 7.1250 -0.0000 -0.0000 -8.6758 -32.6112 -2.6587
6.8811 19.4468 -33.7595 -1.9826 39.8211 3.3045 0.0000 0.0000 0.0000 -15.2864 -1.5685 -5.0389 5.4645 13.8886 42.7929 5.1178 -12.5456 -41.3379 0.1352 -2.3697 -6.5286 0.0000 0.0000 0.0000 22.6402 7.0816 -24.9047 -5.9163 -14.3468 44.6449 -3.0963 10.5258 -31.7750 -0.6894 5.3083 -14.7901 -5.5478 -1.0179 9.9849 0.7157 -1.9551 -0.1368 4.1619 -0.7952 -5.5435 -1.4876 -5.1517 -16.4927 4.1025 -8.3386 33.7209 0.5277 -3.0744 14.6688 -0.0000 0.0000 0.0000 -84.3804 1.6077 38.6639 26.6217 -37.8160 -9.2662 -0.0000 0.0000 -24.8794 24.1563 20.3781 8.8764 -7.1250 0.0000 -0.0000 -4.4539 52.0778 -0.7774 -0.0000 0.0000 0.0000 83.7311 1.4359 34.1072 -26.9841 38.1641 -9.4893 0.0000 -0.0000 -18.6319 -37.2731 -2.0941 1.5930 7.1250 -0.0000 -0.0000 -8.6327 -32.5278 -2.6628
